<?xml version="1.0" encoding="UTF-8"?><svg xmlns="http://www.w3.org/2000/svg" xmlns:xlink="http://www.w3.org/1999/xlink" contentScriptType="text/ecmascript" width="375" zoomAndPan="magnify" contentStyleType="text/css" viewBox="0 0 375 374.999991" height="374.999991" preserveAspectRatio="xMidYMid meet" version="1.0"><defs><clipPath id="clip-0"><path d="M 110 93 L 246.132812 93 L 246.132812 234 L 110 234 Z M 110 93 " clip-rule="nonzero"/></clipPath></defs><g clip-path="url(#clip-0)"><path fill="rgb(0%, 0%, 0%)" d="M 242.179688 151.902344 C 226.984375 154.027344 198.105469 171.328125 198.410156 186.203125 C 198.410156 192.878906 203.882812 199.558594 214.214844 205.628906 C 215.734375 206.539062 216.039062 208.363281 215.128906 209.878906 C 214.519531 210.789062 213.609375 211.398438 212.390625 211.398438 C 211.785156 211.398438 211.480469 211.398438 210.871094 211.09375 C 198.410156 203.808594 192.027344 195.308594 192.027344 186.503906 C 192.027344 177.703125 198.105469 170.417969 202.96875 165.863281 C 171.660156 164.347656 178.347656 183.167969 158.589844 197.433594 C 157.984375 197.738281 157.375 198.039062 156.765625 198.039062 C 155.855469 198.039062 154.941406 197.738281 154.335938 196.828125 C 153.421875 195.613281 153.726562 193.488281 154.941406 192.578125 C 158.285156 190.148438 160.71875 188.023438 162.542969 185.898438 C 166.191406 181.953125 168.316406 176.792969 168.316406 171.328125 C 168.316406 165.5625 168.621094 157.0625 168.925781 149.777344 C 169.230469 142.492188 174.699219 131.5625 181.386719 123.972656 C 195.066406 130.957031 203.578125 127.921875 208.441406 124.277344 C 211.785156 121.847656 213 117.296875 211.480469 113.351562 L 206.617188 100.601562 C 204.792969 95.742188 199.625 93.011719 194.761719 94.226562 C 189.59375 95.136719 183.210938 96.65625 180.171875 97.261719 C 168.011719 100.296875 122.722656 159.792969 117.554688 184.988281 C 117.554688 184.988281 116.035156 193.789062 112.082031 200.164062 C 108.132812 206.539062 111.78125 216.859375 124.851562 221.414062 C 124.851562 221.414062 128.195312 224.144531 145.214844 226.878906 C 166.492188 230.21875 182.300781 241.753906 230.933594 220.808594 C 230.933594 220.808594 238.535156 223.84375 244.308594 221.109375 C 245.523438 220.503906 246.132812 219.289062 246.132812 217.773438 L 246.132812 155.238281 C 246.132812 153.113281 244.308594 151.597656 242.179688 151.902344 Z M 183.210938 104.851562 C 184.730469 104.546875 188.378906 103.636719 196.28125 102.117188 C 198.105469 101.816406 199.625 102.726562 199.929688 104.546875 C 200.234375 106.066406 199.019531 107.886719 197.496094 108.1875 C 189.289062 109.707031 185.949219 110.617188 184.730469 110.921875 C 183.210938 111.226562 181.386719 110.3125 181.082031 108.796875 C 180.78125 106.976562 181.691406 105.152344 183.210938 104.851562 Z M 152.207031 150.078125 C 140.960938 165.257812 133.664062 178.308594 131.839844 187.113281 C 131.539062 188.628906 130.320312 189.542969 128.800781 189.542969 C 128.496094 189.542969 128.496094 189.542969 128.195312 189.542969 C 126.675781 189.238281 125.457031 187.71875 125.761719 186.203125 C 128.496094 173.757812 138.832031 157.972656 147.039062 146.742188 C 147.953125 145.527344 150.078125 145.222656 151.296875 146.132812 C 152.816406 147.042969 153.121094 148.867188 152.207031 150.078125 Z M 196.890625 223.539062 C 191.722656 224.449219 186.554688 225.058594 181.996094 225.058594 C 173.179688 225.058594 166.191406 223.539062 158.894531 221.71875 L 156.765625 221.109375 C 155.246094 220.808594 154.03125 218.984375 154.640625 217.46875 C 154.941406 215.949219 156.765625 214.734375 158.285156 215.34375 L 160.414062 215.949219 C 167.40625 217.773438 173.789062 219.289062 181.996094 219.289062 C 186.25 219.289062 190.8125 218.683594 195.675781 217.773438 C 197.195312 217.46875 199.019531 218.683594 199.320312 220.199219 C 199.320312 221.414062 198.410156 223.234375 196.890625 223.539062 Z M 196.890625 223.539062 " fill-opacity="1" fill-rule="nonzero"/></g></svg>