<?xml version="1.0" encoding="UTF-8" standalone="no"?>
<!-- Created with Inkscape (http://www.inkscape.org/) -->

<svg
   xmlns:dc="http://purl.org/dc/elements/1.1/"
   xmlns:cc="http://creativecommons.org/ns#"
   xmlns:rdf="http://www.w3.org/1999/02/22-rdf-syntax-ns#"
   xmlns:svg="http://www.w3.org/2000/svg"
   xmlns="http://www.w3.org/2000/svg"
   xmlns:sodipodi="http://sodipodi.sourceforge.net/DTD/sodipodi-0.dtd"
   xmlns:inkscape="http://www.inkscape.org/namespaces/inkscape"
   id="svg2503"
   sodipodi:docname="Social_Work.svg"
   inkscape:export-filename="C:\Documents and Settings\Jenny\Рабочий стол\Мои клипарты\Hand.png"
   viewBox="0 0 510 510"
   sodipodi:version="0.32"
   inkscape:export-xdpi="90"
   version="1.0"
   inkscape:output_extension="org.inkscape.output.svg.inkscape"
   inkscape:export-ydpi="90"
   inkscape:version="0.91 r"
   width="510"
   height="510">
  <defs
     id="defs16" />
  <sodipodi:namedview
     id="base"
     bordercolor="#666666"
     inkscape:pageshadow="2"
     inkscape:window-y="0"
     pagecolor="#ffffff"
     inkscape:window-height="714"
     inkscape:zoom="0.54585399"
     inkscape:window-x="0"
     showgrid="false"
     borderopacity="1.0"
     inkscape:current-layer="layer1"
     inkscape:cx="-90.784309"
     inkscape:cy="221.54655"
     inkscape:window-width="1280"
     inkscape:pageopacity="1"
     inkscape:document-units="px"
     fit-margin-top="0"
     fit-margin-left="0"
     fit-margin-right="0"
     fit-margin-bottom="0"
     inkscape:window-maximized="0" />
  <g
     id="layer1"
     inkscape:label="Layer 1"
     inkscape:groupmode="layer"
     transform="translate(0.00968509,310.00463)">
    <g
       id="g4170"
       transform="translate(0.99513713,-10.887104)">
      <g
         id="g4161">
        <path
           inkscape:connector-curvature="0"
           d="m 382.83084,85.901115 c 5.44032,2.573045 9.0332,8.897975 7.83179,14.894185 -0.39669,3.68388 -2.89017,7.0277 -6.38104,8.29722 -8.5005,4.52267 -18.03239,6.3476 -27.19026,9.04533 -3.30953,0.94081 -6.81174,1.12217 -10.21194,0.51008 -6.10902,-0.6461 -12.20672,-1.39421 -18.31574,-2.05164 -3.76289,-0.72544 -7.8998,-2.42569 -9.45256,-6.23425 -1.0994,-2.4937 -0.24935,-5.67883 1.98345,-7.27707 3.19619,-3.11712 7.75246,-3.967245 11.71936,-5.72417 5.61033,-2.22166 11.334,-4.114605 17.09167,-5.905535 3.85356,-1.40554 7.54844,-3.21914 11.03932,-5.35012 4.39759,-2.164985 9.45255,-2.096975 14.2355,-1.892945 2.60682,0.215365 5.22497,0.646095 7.65045,1.688915 z"
           style="fill:#000000;fill-opacity:1;fill-rule:evenodd;stroke:#ffffff;stroke-width:4.08994102;stroke-linejoin:round;stroke-opacity:1"
           id="path3178" />
        <path
           inkscape:connector-curvature="0"
           d="m 450.37015,81.525805 c 2.38014,1.15617 4.70361,2.550375 6.35837,4.67002 1.96078,2.459695 3.37753,5.769515 2.39147,8.93198 -1.31474,3.08312 -4.19358,5.701505 -7.63911,5.973545 -3.21886,0.62342 -6.59639,0.85012 -9.55456,2.40302 -2.7995,1.24685 -5.23631,3.12846 -7.94514,4.534 -6.27903,4.1146 -13.31745,6.801 -20.26519,9.5214 -8.39849,3.35516 -16.84232,6.6083 -25.51283,9.20402 -8.42117,2.60705 -16.76299,5.62216 -25.49017,7.01636 -6.1997,0.6461 -13.02277,-1.02015 -17.40902,-5.65616 -1.73411,-2.78841 -0.26069,-6.43828 2.16479,-8.29722 3.32086,-2.73174 7.71845,-3.37783 11.67402,-4.74937 11.42467,-3.54785 22.92868,-6.92568 34.07,-11.30099 5.92769,-3.19647 11.59469,-6.86901 17.21635,-10.58689 4.83962,-3.683875 9.33922,-8.11586 15.15356,-10.24684 5.03229,-2.08564 10.29127,-4.80604 15.9016,-3.910575 3.07151,0.34005 6.02969,1.371535 8.88586,2.4937 z"
           style="fill:#000000;fill-opacity:1;fill-rule:evenodd;stroke:#ffffff;stroke-width:4.08994102;stroke-linejoin:round;stroke-opacity:1"
           id="path3174" />
        <path
           inkscape:connector-curvature="0"
           d="m 485.60755,94.084985 c -4.97562,0.95214 -8.84052,4.55667 -12.21805,8.104525 -9.0332,9.31737 -16.28696,20.13096 -24.61745,30.03775 -4.65827,5.80352 -11.28866,9.46472 -16.75165,14.38411 -1.75677,1.53023 -3.11685,3.95592 -2.41414,6.32493 0.58937,2.10831 2.89017,3.47985 5.03229,3.07179 2.18747,-0.36272 4.17092,-1.45088 6.32438,-1.99496 4.27291,-1.47355 8.51183,-3.25315 12.20671,-5.90554 5.89368,-3.33249 12.51274,-4.97606 18.68977,-7.68513 3.08285,-1.22418 6.08636,-2.62971 9.05587,-4.1146 5.41765,-2.53904 11.14132,-4.69269 15.85626,-8.46725 3.62688,-2.90176 7.02708,-6.48362 8.29649,-11.07429 1.64343,-5.18009 1.05406,-11.301 -2.41414,-15.61963 -2.66349,-3.12846 -6.46038,-5.089415 -10.32528,-6.290925 -2.18746,-0.623425 -4.44292,-0.95214 -6.72106,-0.77078 z"
           style="fill:#000000;fill-opacity:1;fill-rule:evenodd;stroke:#ffffff;stroke-width:4.08994102;stroke-linejoin:round;stroke-opacity:1"
           id="path3170" />
        <path
           inkscape:connector-curvature="0"
           d="m 477.9571,85.039655 c 3.68355,1.303525 7.66179,3.615865 8.72718,7.673795 -0.58937,5.882865 -2.31213,11.58437 -4.73761,16.95716 -1.74544,4.06926 -3.97823,7.90049 -6.17703,11.73172 -4.91896,8.25188 -11.25466,15.58563 -18.42908,21.94456 -5.21364,4.65869 -10.88064,8.8073 -16.899,12.37782 -10.82397,6.73299 -22.07863,12.72921 -33.27662,18.80477 -7.41244,3.86523 -15.07422,7.35641 -23.2007,9.46473 -7.4011,2.0403 -15.14222,2.32367 -22.77001,2.74306 -19.16579,0.8728 -38.30892,2.28967 -57.44071,3.68388 -15.38024,1.14483 -30.59046,3.86524 -45.84603,6.01889 -6.18836,0.75944 -12.42206,2.1083 -18.6671,1.2015 -5.27031,-0.63476 -10.06459,-3.10578 -14.96088,-4.99873 -6.48304,-2.6864 -12.89809,-5.6675 -19.76649,-7.24307 -18.23641,-4.73802 -36.58615,-9.068 -54.69789,-14.25942 -16.67231,-4.64735 -33.27662,-9.58941 -50.05094,-13.8287 -5.474322,-1.37154 -11.039316,-2.31235 -16.638312,-2.99244 -13.31745,-1.97229 -26.793576,-2.58438 -40.12236,-4.45466 -3.184854,-0.64609 -6.483048,-2.06297 -8.251152,-4.94206 -1.7001,-2.41435 -2.584152,-5.33878 -3.332196,-8.18387 -1.099398,-5.15743 -1.58676,-10.90427 1.065396,-15.69898 2.289468,-3.8879 7.106418,-5.64483 11.458674,-5.15742 9.23721,0.51007 18.58776,2.02897 27.779634,0.23803 10.325274,-1.60957 20.503206,-4.01259 30.703806,-6.21158 7.3331,-1.85894 14.8022,-3.13979 22.35065,-3.63853 6.48305,-0.4534 13.0001,-1.30353 19.49448,-0.66877 5.08896,0.65743 9.65657,3.11713 14.2015,5.33879 4.57894,1.63224 9.48656,1.47355 14.25817,1.96095 4.31826,0.71411 8.48917,2.10831 12.69408,3.29849 3.2982,0.99748 6.63039,2.02897 10.06459,2.36901 3.23019,0.54408 6.53972,0.39673 9.76991,0.91814 2.8335,0.18136 5.58766,1.05415 8.14915,2.22166 7.25376,2.57304 14.93821,3.6272 22.12397,6.3816 5.803,2.13098 11.66268,4.09194 17.65837,5.58816 3.45687,0.9068 6.74373,2.33501 10.13259,3.44584 8.86319,2.267 17.72638,4.57934 26.61224,6.78966 9.6339,2.28967 19.2678,4.56801 28.85636,7.0277 6.85707,1.81361 13.48746,4.35264 20.23119,6.5403 4.85095,1.47355 9.89458,3.03778 15.01755,2.56171 2.51615,-0.35139 5.44032,-1.59824 6.04102,-4.34131 1.7341,-5.93954 -1.46208,-12.03777 -0.13601,-18.03398 0.0567,-1.97229 1.45076,-3.29849 3.15086,-4.0466 3.42286,-1.45088 7.17442,-1.85894 10.63129,-3.19647 13.51013,-4.27329 26.90691,-8.8753 40.21303,-13.74935 6.44905,-2.56171 12.30872,-6.39294 17.68104,-10.75692 9.35055,-7.0617 18.49709,-14.508795 28.82236,-20.130955 4.54494,-2.13098 9.86058,-3.24181 14.7682,-1.688915 0.92939,0.24937 1.82478,0.63476 2.74283,0.940805 z"
           style="fill:#000000;fill-opacity:1;fill-rule:evenodd;stroke:#ffffff;stroke-width:4.08994102;stroke-linejoin:round;stroke-opacity:1"
           id="path4287" />
        <path
           id="path3638"
           style="fill:#000000;fill-opacity:1;fill-rule:evenodd;stroke:#ffe6ff;stroke-width:4.08994102;stroke-linejoin:round;stroke-opacity:1"
           d="m 136.81504,11.039105 c 14.40551,6.404275 29.10571,12.275805 42.84252,20.074285 7.69578,4.60201 15.10822,9.65742 22.2373,15.09822 5.05497,3.479845 9.05587,8.308555 14.31485,11.51636 4.62427,2.74307 10.17793,3.253145 14.8362,5.93954 5.07763,2.482365 10.24594,4.976065 15.84493,6.041555 4.17092,0.872795 8.33049,1.92695 12.21806,3.74055 4.96429,2.08564 9.86058,4.37531 15.05155,5.860195 6.8344,2.255665 13.65747,4.568005 20.55987,6.61964 10.82397,3.71788 20.27653,10.348855 30.26178,15.75565 10.65396,6.48362 21.35326,13.32996 29.70642,22.704 3.81956,4.5 7.00441,9.7481 8.09247,15.6083 0.87272,4.3073 0.62337,8.82996 -0.54403,13.04658 -1.46208,4.56801 -3.68355,9.44206 -8.09247,11.83374 -2.43681,1.29219 -5.47433,1.40554 -8.00181,0.28338 -9.27121,-2.83375 -18.12306,-6.88035 -27.24693,-10.14483 -7.08375,-2.78841 -14.40552,-4.99873 -21.82929,-6.67631 -16.77432,-3.53652 -33.31062,-8.08186 -49.9376,-12.28714 -18.76911,-4.80604 -37.52688,-9.64609 -56.44332,-13.85137 -18.81444,-4.02393 -37.56088,-8.47858 -56.568,-11.48236 -8.30782,-1.00881 -16.74031,-0.9408 -25.01413,0.30605 -7.17443,0.97481 -14.314846,2.44836 -21.228586,4.65868 -4.408926,1.5869 -9.225876,2.75441 -12.773418,5.98488 -3.184854,3.11713 -4.442928,7.53778 -6.188364,11.50503 -2.164794,4.9874 -3.978234,10.47354 -8.10381,14.22542 -2.8335,2.53904 -6.755064,2.96977 -10.393278,3.23048 -7.741122,0.72544 -15.52758,0.27204 -23.268702,-0.068 -3.785556,-0.57809 -5.95035,-4.44332 -6.369708,-7.95717 -0.884052,-8.20654 -1.41675,-16.45842 -2.142126,-24.68763 C 17.468016,104.48484 16.674636,90.98486 14.441838,77.666235 13.013754,69.22166 10.644948,60.981115 7.981458,52.85392 5.930004,46.381635 3.867216,39.898015 2.12178,33.33505 1.657086,31.079385 3.266514,28.9144 5.340636,28.154955 10.089582,25.978635 15.201216,24.777125 20.120172,23.06554 41.50743,16.28721 62.75868,9.05548 84.497292,3.50133 92.408424,1.61972 100.73891,1.52904 108.67271,3.36531 c 8.9992,1.598235 17.68104,4.55667 26.46489,7.061705 0.55537,0.20403 1.12207,0.40806 1.67744,0.61209 z"
           inkscape:connector-curvature="0" />
        <path
           id="path3640"
           style="fill:#fff1ce;fill-rule:evenodd"
           d="m 335.46605,123.17626 c 3.66089,2.00629 7.31043,4.31863 9.93992,7.62845 1.94945,2.55038 3.58155,5.38413 4.73761,8.39924 0.97473,2.52771 1.12207,5.28211 0.65738,7.94583 -0.57804,4.09194 -2.11946,7.96851 -3.45687,11.85641 -0.66871,1.83627 -1.81344,4.05793 -4.01224,4.22796 -2.36881,0.32872 -4.65827,-0.61209 -6.90241,-1.24685 -4.57893,-1.59824 -8.88585,-3.87657 -13.55546,-5.2141 -3.77422,-1.20151 -7.3671,-2.92443 -10.82397,-4.84005 -1.6321,-0.87279 -3.74022,-2.05163 -3.4002,-4.22795 -0.0453,-1.98363 0.82738,-3.84257 1.11073,-5.79219 0.80472,-4.82871 1.90411,-9.63475 3.97824,-14.0894 0.97472,-2.41436 2.64082,-4.534 4.57893,-6.25692 3.42287,-2.27834 7.88847,-2.17632 11.67402,-0.97481 1.96078,0.53274 3.64955,1.72292 5.47432,2.58438 z"
           inkscape:connector-curvature="0" />
        <path
           id="path3642"
           style="fill:#000000;fill-opacity:1;fill-rule:evenodd"
           d="m 14.033814,29.86654 c 3.037512,1.31486 4.408926,3.275815 4.839618,4.794705 0.861384,1.938285 1.779438,3.887905 2.017452,5.71284 0.827382,2.845085 0.884052,5.542815 1.462086,8.331225 0.96339,3.83123 2.21013,7.7078 3.808224,11.65238 0.861384,2.24433 2.43681,4.590675 3.57021,6.86901 1.450752,1.711585 2.49348,3.547855 5.304312,5.12342 2.810832,1.40554 5.995686,1.74559 8.55717,1.711585 4.284252,0.13602 8.432496,0.09068 12.286056,-0.238035 3.184854,-0.20403 6.46038,-0.31738 9.792576,-0.374055 5.984352,-0.260705 11.78736,-0.714105 17.771712,-0.986145 3.751554,0.04534 7.061082,-0.419395 11.129988,0.01134 3.434202,0.18136 7.038412,0.56675 10.619962,1.008815 3.30952,0.532745 6.57372,0.918135 9.89458,1.54156 4.0349,1.02015 8.02447,1.620905 12.07071,2.7204 4.19358,1.008815 8.68184,2.096975 12.39939,4.114605 6.00702,2.92443 12.27473,5.71284 17.62437,9.02266 2.56149,1.507555 5.32698,3.19647 6.02969,4.930725 1.65477,2.731735 1.0994,5.066735 1.53009,7.560445 0.35136,1.7796 2.84484,3.79723 5.75767,5.42946 3.09419,1.82494 6.0977,3.71788 8.48917,5.73552 1.91545,1.41688 3.49087,2.87909 4.51093,4.3413 1.46209,1.97229 2.2328,3.86524 2.69749,5.70151 0.83872,1.97229 1.6321,3.94457 1.68877,5.7695 0.26068,2.14232 0.47603,4.28463 0.44203,6.3476 -0.36269,1.43955 -1.40542,2.61839 -2.81084,3.6272 -3.03751,2.83375 -5.735,5.82619 -8.70451,8.68261 -1.79077,1.73426 -5.78034,2.24433 -8.63651,3.37783 -4.5676,1.03149 -9.45255,1.83627 -14.39418,2.59572 -3.23019,0.2267 -6.46038,0.49874 -10.22326,0.13602 -3.91023,-0.28337 -7.91114,-0.6801 -11.96871,-1.20151 -3.91023,-0.62343 -7.76379,-0.97481 -11.79869,-2.08564 -7.34443,-1.71158 -14.7002,-3.77455 -22.055966,-5.55415 -3.842226,-0.9068 -7.718454,-2.05163 -11.526678,-2.77707 -4.227582,-0.47607 -7.911132,0.034 -9.871914,1.41687 -2.448144,1.04282 -4.635606,2.22166 -7.265094,3.15113 -2.119458,0.78212 -4.669608,1.29219 -7.446438,1.57556 -3.17352,-0.0567 -6.324372,-0.068 -9.769908,-0.49874 -2.504814,-0.12468 -4.87362,-1.53022 -6.879738,-2.67505 -2.074122,-1.53023 -5.667,-2.31235 -7.163088,-1.45088 -1.405416,0.72544 -2.425476,1.67758 -3.207522,2.69773 -2.312136,1.21284 -6.018354,1.51889 -9.758574,1.63224 -3.184854,-0.39673 -5.939016,-2.66373 -6.075024,-4.11461 -1.450752,-3.29849 -2.77683,-6.59697 -3.615546,-9.80477 -0.192678,-2.16499 -0.90672,-4.44332 -0.90672,-6.56297 -0.22668,-4.20528 -0.952056,-8.53525 -1.201404,-12.74054 C 12.424386,109.82363 12.005028,103.57805 11.24565,97.24178 10.712952,93.739265 9.930906,90.16874 9.534216,86.688895 8.661498,80.21661 7.312752,73.630975 6.349362,67.13602 5.136624,60.935775 4.513254,54.860215 3.640536,48.72798 2.847156,45.270805 2.484468,41.90431 1.317066,38.36779 0.841038,36.565525 0.285672,34.751925 0.036324,33.006335 0.387678,31.79349 1.861098,31.056715 3.345852,30.353945 5.544648,29.86654 7.074738,28.73304 10.16892,29.02775 c 1.054062,-0.02267 2.742828,0.34005 3.864894,0.83879 z"
           inkscape:connector-curvature="0" />
      </g>
      <path
         id="path3855"
         sodipodi:nodetypes="cccccccc"
         style="fill:#000000;fill-opacity:1;stroke:none;stroke-width:2.80502748"
         d="m 368.90226,-288.207 c 48.93703,1.02014 91.50656,31.72814 106.93114,83.71963 26.05623,135.11506 -124.1888,191.9707 -206.94555,272.7178 -71.83926,-93.45084 -212.486727,-117.60376 -205.462687,-255.8211 6.10759,-30.82282 23.33051,-55.91617 46.424947,-73.56405 30.94476,-23.67684 74.04988,-31.81496 110.88215,-17.66642 19.70533,6.95555 37.65173,19.04001 51.06471,35.0587 23.3071,-28.72926 60.1501,-45.24744 97.09553,-44.43968 z"
         inkscape:connector-curvature="0" />
    </g>
  </g>
  <metadata
     id="metadata14">
    <rdf:RDF>
      <cc:Work>
        <dc:format>image/svg+xml</dc:format>
        <dc:type
           rdf:resource="http://purl.org/dc/dcmitype/StillImage" />
        <cc:license
           rdf:resource="http://creativecommons.org/publicdomain/zero/1.0/" />
        <dc:publisher>
          <cc:Agent
             rdf:about="http://openclipart.org/">
            <dc:title>Openclipart</dc:title>
          </cc:Agent>
        </dc:publisher>
        <dc:title></dc:title>
        <dc:date>2015-07-31T17:46:32</dc:date>
        <dc:description />
        <dc:source></dc:source>
        <dc:creator>
          <cc:Agent>
            <dc:title>Jotam</dc:title>
          </cc:Agent>
        </dc:creator>
        <dc:subject>
          <rdf:Bag>
            <rdf:li>hand</rdf:li>
            <rdf:li>heart</rdf:li>
            <rdf:li>social</rdf:li>
            <rdf:li>work</rdf:li>
            <rdf:li>people</rdf:li>
            <rdf:li>love</rdf:li>
            <rdf:li>helping</rdf:li>
            <rdf:li>reaching</rdf:li>
          </rdf:Bag>
        </dc:subject>
      </cc:Work>
      <cc:License
         rdf:about="http://creativecommons.org/publicdomain/zero/1.0/">
        <cc:permits
           rdf:resource="http://creativecommons.org/ns#Reproduction" />
        <cc:permits
           rdf:resource="http://creativecommons.org/ns#Distribution" />
        <cc:permits
           rdf:resource="http://creativecommons.org/ns#DerivativeWorks" />
      </cc:License>
    </rdf:RDF>
  </metadata>
</svg>
